<mxfile host="app.diagrams.net" modified="2023-11-13T17:25:42.300Z" agent="Mozilla/5.0 (Windows NT 10.0; Win64; x64) AppleWebKit/537.36 (KHTML, like Gecko) Chrome/119.0.0.0 Safari/537.36" etag="H_h7gwa7VwpA1WcAhxgl" version="22.1.0" type="device">
  <diagram name="Halaman-1" id="o-ev9nK8VwAg8Qdexvd_">
    <mxGraphModel dx="712" dy="784" grid="1" gridSize="10" guides="1" tooltips="1" connect="1" arrows="1" fold="1" page="1" pageScale="1" pageWidth="827" pageHeight="1169" math="0" shadow="0">
      <root>
        <mxCell id="0" />
        <mxCell id="1" parent="0" />
        <mxCell id="gN44BBI5Dbp1TIclMc8c-52" style="edgeStyle=orthogonalEdgeStyle;rounded=0;orthogonalLoop=1;jettySize=auto;html=1;entryX=0;entryY=0.5;entryDx=0;entryDy=0;" parent="1" source="gN44BBI5Dbp1TIclMc8c-45" target="gN44BBI5Dbp1TIclMc8c-51" edge="1">
          <mxGeometry relative="1" as="geometry" />
        </mxCell>
        <mxCell id="gN44BBI5Dbp1TIclMc8c-55" style="edgeStyle=orthogonalEdgeStyle;rounded=0;orthogonalLoop=1;jettySize=auto;html=1;entryX=0.5;entryY=0;entryDx=0;entryDy=0;" parent="1" source="gN44BBI5Dbp1TIclMc8c-45" target="gN44BBI5Dbp1TIclMc8c-54" edge="1">
          <mxGeometry relative="1" as="geometry" />
        </mxCell>
        <mxCell id="gN44BBI5Dbp1TIclMc8c-45" value="KAI Acces" style="ellipse;whiteSpace=wrap;html=1;aspect=fixed;" parent="1" vertex="1">
          <mxGeometry x="374" y="190" width="80" height="80" as="geometry" />
        </mxCell>
        <mxCell id="uj-5L8JawAPr-GnOAXtF-4" style="edgeStyle=orthogonalEdgeStyle;rounded=0;orthogonalLoop=1;jettySize=auto;html=1;" parent="1" source="gN44BBI5Dbp1TIclMc8c-46" edge="1">
          <mxGeometry relative="1" as="geometry">
            <mxPoint x="370" y="230.005" as="targetPoint" />
          </mxGeometry>
        </mxCell>
        <mxCell id="gN44BBI5Dbp1TIclMc8c-46" value="Pengguna" style="rounded=0;whiteSpace=wrap;html=1;" parent="1" vertex="1">
          <mxGeometry x="60" y="183.13" width="90" height="93.75" as="geometry" />
        </mxCell>
        <mxCell id="gN44BBI5Dbp1TIclMc8c-53" style="edgeStyle=orthogonalEdgeStyle;rounded=0;orthogonalLoop=1;jettySize=auto;html=1;" parent="1" source="gN44BBI5Dbp1TIclMc8c-51" edge="1">
          <mxGeometry relative="1" as="geometry">
            <mxPoint x="460" y="250" as="targetPoint" />
            <Array as="points">
              <mxPoint x="570" y="250" />
              <mxPoint x="570" y="250" />
            </Array>
          </mxGeometry>
        </mxCell>
        <mxCell id="gN44BBI5Dbp1TIclMc8c-51" value="Admin" style="rounded=0;whiteSpace=wrap;html=1;" parent="1" vertex="1">
          <mxGeometry x="670" y="202.5" width="90" height="55" as="geometry" />
        </mxCell>
        <mxCell id="gN44BBI5Dbp1TIclMc8c-54" value="Pimpinan&lt;br&gt;PT KAI" style="rounded=0;whiteSpace=wrap;html=1;" parent="1" vertex="1">
          <mxGeometry x="369" y="390" width="90" height="55" as="geometry" />
        </mxCell>
        <mxCell id="gN44BBI5Dbp1TIclMc8c-58" value="memesan tiket,&lt;br&gt;transaksi" style="text;html=1;align=center;verticalAlign=middle;resizable=0;points=[];autosize=1;strokeColor=none;fillColor=none;" parent="1" vertex="1">
          <mxGeometry x="510" y="190" width="100" height="40" as="geometry" />
        </mxCell>
        <mxCell id="gN44BBI5Dbp1TIclMc8c-59" value="Data Tiket,&lt;br&gt;tiket,&lt;br&gt;laporan penjualan&lt;br&gt;" style="text;html=1;align=center;verticalAlign=middle;resizable=0;points=[];autosize=1;strokeColor=none;fillColor=none;" parent="1" vertex="1">
          <mxGeometry x="500" y="250" width="120" height="60" as="geometry" />
        </mxCell>
        <mxCell id="gN44BBI5Dbp1TIclMc8c-60" value="Laporan&lt;br&gt;Penjualan" style="text;html=1;align=center;verticalAlign=middle;resizable=0;points=[];autosize=1;strokeColor=none;fillColor=none;" parent="1" vertex="1">
          <mxGeometry x="340" y="317.5" width="80" height="40" as="geometry" />
        </mxCell>
        <mxCell id="uj-5L8JawAPr-GnOAXtF-2" value="" style="endArrow=classic;html=1;rounded=0;" parent="1" edge="1">
          <mxGeometry width="50" height="50" relative="1" as="geometry">
            <mxPoint x="370" y="260" as="sourcePoint" />
            <mxPoint x="160" y="260" as="targetPoint" />
          </mxGeometry>
        </mxCell>
        <mxCell id="uj-5L8JawAPr-GnOAXtF-3" value="Data tiket, &lt;br&gt;Tiket" style="edgeLabel;html=1;align=center;verticalAlign=middle;resizable=0;points=[];" parent="uj-5L8JawAPr-GnOAXtF-2" vertex="1" connectable="0">
          <mxGeometry x="0.4381" y="-1" relative="1" as="geometry">
            <mxPoint x="31" y="18" as="offset" />
          </mxGeometry>
        </mxCell>
        <mxCell id="JRZUP1H1nsV2pVPfO0lf-2" value="memesan tiket,&lt;br&gt;transaksi" style="text;html=1;align=center;verticalAlign=middle;resizable=0;points=[];autosize=1;strokeColor=none;fillColor=none;" vertex="1" parent="1">
          <mxGeometry x="200" y="190" width="100" height="40" as="geometry" />
        </mxCell>
      </root>
    </mxGraphModel>
  </diagram>
</mxfile>
